<?xml version="1.0" encoding="UTF-8" standalone="no"?>
<!-- Created with Inkscape (http://www.inkscape.org/) -->

<svg
   width="181mm"
   height="181mm"
   viewBox="0 0 181.00001 181"
   version="1.1"
   id="svg5"
   inkscape:version="1.1.1 (c3084ef, 2021-09-22)"
   sodipodi:docname="location.svg"
   xmlns:inkscape="http://www.inkscape.org/namespaces/inkscape"
   xmlns:sodipodi="http://sodipodi.sourceforge.net/DTD/sodipodi-0.dtd"
   xmlns="http://www.w3.org/2000/svg"
   xmlns:svg="http://www.w3.org/2000/svg">
  <sodipodi:namedview
     id="namedview7"
     pagecolor="#ffffff"
     bordercolor="#666666"
     borderopacity="1.0"
     inkscape:pageshadow="2"
     inkscape:pageopacity="0.0"
     inkscape:pagecheckerboard="0"
     inkscape:document-units="mm"
     showgrid="false"
     fit-margin-top="0"
     fit-margin-left="0"
     fit-margin-right="0"
     fit-margin-bottom="0"
     inkscape:zoom="0.70710678"
     inkscape:cx="199.40411"
     inkscape:cy="325.26912"
     inkscape:window-width="1792"
     inkscape:window-height="1120"
     inkscape:window-x="0"
     inkscape:window-y="0"
     inkscape:window-maximized="0"
     inkscape:current-layer="g37"
     inkscape:lockguides="false" />
  <defs
     id="defs2" />
  <g
     inkscape:label="Layer 1"
     inkscape:groupmode="layer"
     id="layer1"
     transform="translate(0.30022323,-166.73586)">
    <g
       id="g37"
       transform="translate(-58.384722,-67.589222)">
      <g
         id="g3570"
         transform="translate(24.63853,0.35423505)">
        <ellipse
           style="fill:#fde9bc;fill-opacity:1;stroke-width:0"
           id="path2037"
           cx="96.419159"
           cy="343.86359"
           rx="26.635468"
           ry="14.948478" />
        <ellipse
           style="fill:#fdd67a;fill-opacity:1;stroke-width:0"
           id="path2035"
           cx="161.56564"
           cy="370.98788"
           rx="26.331533"
           ry="14.187824" />
        <ellipse
           style="fill:#fdc23a;fill-opacity:1;stroke-width:0"
           id="path2033"
           cx="97.240707"
           cy="398.76526"
           rx="24.868828"
           ry="13.861316" />
        <path
           id="path2799"
           style="fill:#faa432;stroke-width:0"
           d="m 107.27627,387.84813 c 3.19188,-2.34389 12.49656,5.30802 15.63914,7.6951 6.26994,8.23725 -9.8455,16.96358 -15.1287,14.50291 11.0325,-4.63837 8.87752,-16.40544 -0.51044,-22.19801 z"
           sodipodi:nodetypes="cccc" />
        <path
           id="path3179"
           style="fill:#fdc23a;fill-opacity:1;stroke-width:0"
           d="m 170.77634,359.80227 c 3.19188,-2.34389 12.49656,5.30802 15.63914,7.6951 6.26994,8.23725 -9.8455,16.96358 -15.1287,14.50291 11.0325,-4.63837 8.87752,-16.40544 -0.51044,-22.19801 z"
           sodipodi:nodetypes="cccc" />
        <path
           id="path3459"
           style="fill:#fdd67a;fill-opacity:1;stroke-width:0"
           d="m 106.76351,331.00689 c 3.19188,-2.34389 12.49656,5.30802 15.63914,7.6951 6.26994,8.23725 -9.8455,16.96358 -15.1287,14.50291 11.0325,-4.63837 8.87752,-16.40544 -0.51044,-22.19801 z"
           sodipodi:nodetypes="cccc" />
        <g
           id="g1409"
           transform="translate(152.74626,17.666383)">
          <path
             style="fill:#d4f8fd;fill-opacity:1;stroke:none;stroke-width:0.246216px;stroke-linecap:butt;stroke-linejoin:miter;stroke-opacity:1"
             d="m -43.234739,234.64855 c 31.61752,21.8522 0,42.77975 0,42.77975 6.48541,-11.26465 12.39855,-24.63128 0,-42.77975 z"
             id="path3048"
             sodipodi:nodetypes="ccc" />
          <path
             style="fill:#fd431a;stroke-width:0.352778"
             d="m -65.911589,310.96622 c 0.329537,0 0.599158,-0.12904 0.599158,-0.28676 0,-0.15772 -5.410084,-8.1349 -12.022407,-17.72708 -6.639511,-9.63159 -12.633378,-18.70394 -13.386958,-20.26255 -7.186617,-14.86388 -4.071557,-32.86914 7.728078,-44.66877 5.083477,-5.08348 11.109909,-8.51973 18.327018,-10.45001 3.034995,-0.81174 4.072589,-0.91235 9.408404,-0.91235 5.33583,0 6.37343,0.10061 9.40843,0.91235 21.943271,5.86892 34.502132,27.7075 28.305612,49.22062 -1.76601,6.13127 -1.53125,5.76556 -32.622872,50.81836 -1.78529,2.58694 -3.62786,4.87753 -4.0946,5.09019 -1.50936,0.68771 -2.58157,-0.0504 -4.891164,-3.36686 -6.159541,-8.6539 -6.758699,-8.36714 -6.758699,-8.36714 z m 15.342483,-32.30249 c 1.49553,-0.30386 4.06853,-1.19863 5.71776,-1.98837 2.43702,-1.16696 3.56772,-2.00499 6.03733,-4.4746 2.469601,-2.4696 3.307631,-3.6003 4.474591,-6.03731 1.55551,-3.24842 2.54087,-7.28429 2.54087,-10.40695 0,-3.12266 -0.98536,-7.15853 -2.54087,-10.40694 -1.16696,-2.43702 -2.00499,-3.56772 -4.474591,-6.03732 -2.47115,-2.47115 -3.60764,-3.31322 -6.08473,-4.50839 -4.08225,-1.96966 -7.31535,-2.63343 -11.59427,-2.38034 -4.036155,0.23872 -6.386285,0.89106 -9.81665,2.72486 -2.793316,1.49325 -3.736746,1.66241 -4.864817,0.87228 -0.677064,-0.47424 -0.851812,-0.38276 -2.527143,1.32291 -1.654743,1.68472 -1.758813,1.88757 -1.29141,2.51717 0.794081,1.06964 0.615752,2.05878 -0.873369,4.84438 -1.833801,3.43036 -2.486141,5.7805 -2.724866,9.81667 -0.408584,6.90807 1.803218,12.58031 6.893648,17.67898 2.466265,2.47027 3.594738,3.30772 6.032404,4.47669 5.046188,2.4199 9.850733,3.05206 15.096113,1.98628 z"
             id="path49"
             sodipodi:nodetypes="csscssscsssccssssssssssssssssss" />
          <path
             id="rect1929"
             style="fill:#ff0000;stroke-width:0"
             d="m -40.43434,288.60618 c -5.82999,11.88063 -7.86098,15.66093 -10.47636,19.5001 -1.78442,2.61938 -0.52201,8.19078 -1.36581,8.02586 l -0.30386,-0.0594 v 3.87056 c 0.54592,-0.72024 1.13136,-1.525 1.71514,-2.37091 31.09162,-45.0528 30.85682,-44.68682 32.62283,-50.81809 6.19652,-21.51312 -6.3625,-43.35185 -28.30578,-49.22077 23.6251,34.87339 15.52447,51.81236 6.11384,71.07267 z"
             sodipodi:nodetypes="csccccscc" />
          <path
             style="fill:#000000;stroke-width:0.352778"
             d="m -62.672279,396.59792 c -9.828822,-1.41418 -18.111536,-5.93396 -20.74237,-11.31889 -1.214615,-2.48614 -1.225535,-6.33786 -0.02487,-8.77736 4.068579,-8.26661 19.699146,-13.37204 34.775807,-11.35885 4.51889,0.6034 9.17231,1.87942 11.91254,3.26654 l 1.68199,0.85143 8.72496,-3.75781 c 4.79872,-2.0668 8.7755,-3.80156 8.83728,-3.85503 0.0618,-0.0535 -0.45271,-0.83743 -1.1433,-1.74216 -3.09265,-4.0516 -2.97051,-9.25972 0.30856,-13.15667 0.49434,-0.58749 0.8988,-1.14579 0.8988,-1.24067 0,-0.0949 -3.95247,-1.86943 -8.78327,-3.94345 l -8.78327,-3.77094 -1.35909,0.69048 c -1.91547,0.97314 -6.55722,2.3914 -9.85183,3.01015 -8.56387,1.60837 -18.372145,0.78509 -26.286277,-2.20638 -4.586591,-1.73369 -9.099991,-5.34378 -10.84557,-8.67495 -1.351754,-2.57961 -1.332018,-6.26148 0.04863,-9.07305 1.922931,-3.91586 7.223146,-7.63502 13.667768,-9.59065 1.659251,-0.50351 3.286439,-0.91547 3.615972,-0.91547 0.329537,0 0.599158,-0.12904 0.599158,-0.28676 0,-0.15772 -5.410084,-8.1349 -12.022409,-17.72708 -6.63951,-9.63159 -12.633376,-18.70394 -13.386953,-20.26255 -7.18662,-14.86388 -4.07156,-32.86914 7.728073,-44.66877 5.083478,-5.08348 11.10991,-8.51973 18.32702,-10.45001 3.034997,-0.81174 4.072597,-0.91235 9.408418,-0.91235 5.33583,0 6.37343,0.10061 9.40842,0.91235 21.94327,5.86892 34.50212,27.7075 28.30561,49.22062 -1.76602,6.13127 -1.53125,5.76556 -32.62286,50.81836 -1.78529,2.58694 -3.62785,4.87753 -4.09459,5.09019 -1.50936,0.68771 -2.58157,-0.0504 -4.891173,-3.36686 -1.182807,-1.69847 -2.323035,-3.2606 -2.533837,-3.4714 -0.578086,-0.57809 -7.104105,1.17479 -10.579689,2.84169 -4.693507,2.25102 -7.203172,5.37204 -6.657721,8.27955 0.281386,1.49991 2.348424,3.89284 4.596698,5.32142 3.755725,2.38643 8.354653,3.74847 15.009431,4.44527 11.421001,1.19585 24.284271,-2.84761 27.192211,-8.54763 0.86703,-1.69953 0.85589,-2.53883 -0.0588,-4.42825 -0.90541,-1.87033 -2.86537,-3.50389 -6.21486,-5.17991 -2.56352,-1.28272 -3.27693,-2.02019 -3.27693,-3.38739 0,-1.04099 1.54431,-2.4766 2.66412,-2.4766 1.46956,0 6.40924,2.76793 8.66235,4.85391 2.88574,2.6717 4.02187,5.09385 4.01118,8.55165 -0.009,2.84518 -0.60089,4.42751 -2.50233,6.68724 -0.78065,0.92776 -0.86491,1.19482 -0.45783,1.4511 0.27439,0.17274 4.20593,1.90635 8.73674,3.85246 l 8.23785,3.53838 3.0705295,-1.2285 c 11.92443,-4.77088 28.4336505,-4.07597 38.3814005,1.61555 2.67654,1.53136 5.77135,4.503 7.0003,6.7217 0.89365,1.61336 1.04142,2.25553 1.04147,4.52596 7e-5,3.52262 -1.14967,5.92816 -4.1167,8.61317 -5.3987,4.88554 -14.29094,7.6146 -24.8110305,7.6146 -7.17886003,0 -12.97527,-1.1597 -19.4543995,-3.89228 -1.15123,-0.48553 -2.29175,-0.0568 -16.65097,6.25883 l -1.88593,0.82949 0.86489,1.13601 c 1.95272,2.56484 2.53788,4.16935 2.53713,6.95684 -7.1e-4,2.2209 -0.16191,2.95484 -1.00438,4.56988 -2.57321,4.93294 -9.51336,9.03992 -18.21502,10.77913 -3.85677,0.77086 -12.835287,0.96352 -16.997091,0.36472 z m 16.654387,-5.80567 c 6.05523,-1.35465 10.13079,-3.36885 12.68268,-6.26794 2.50826,-2.84954 2.34075,-4.90095 -0.6439,-7.88548 -7.39138,-7.39104 -26.889453,-8.86129 -38.778071,-2.92405 -2.884371,1.44048 -5.858538,4.34956 -6.244784,6.10813 -0.381606,1.73744 0.134123,3.07555 1.951934,5.06453 2.839321,3.10667 9.196059,5.73713 15.862695,6.56409 3.819766,0.47382 11.619846,0.13482 15.169446,-0.65928 z m 61.55972,-27.00784 c 8.23413,-1.33922 14.9086,-5.05238 16.07407,-8.94234 1.40872,-4.70191 -5.33942,-9.74193 -15.45944,-11.54628 -3.66862,-0.6541 -12.1937705,-0.6458 -15.95169053,0.0155 -7.90472997,1.3911 -13.95158947,4.74587 -15.40260947,8.54529 -0.49636,1.29971 -0.51944,1.7559 -0.15106,2.98546 1.14758,3.83029 7.7918295,7.58037 15.82520947,8.93191 3.73406003,0.62821 11.23517053,0.63341 15.06552053,0.0104 z m -55.0094,-71.27105 c 7.35491,-10.67153 13.97925,-20.63388 14.72077,-22.13855 2.20046,-4.46515 3.14166,-8.74271 3.16272,-14.37395 0.0275,-7.33447 -1.63959,-13.00954 -5.53268,-18.8349 -4.83044,-7.22797 -12.12118,-12.32647 -20.56825,-14.38365 -4.29245,-1.04537 -11.04828,-1.05319 -15.266215,-0.0177 -12.777308,3.13689 -22.3288,12.68759 -25.477229,25.47511 -0.571812,2.32245 -0.734274,4.07252 -0.720476,7.76111 0.02108,5.63476 0.963556,9.91469 3.165277,14.37395 0.742921,1.50467 7.931137,12.27726 15.97381,23.93907 l 14.623043,21.2033 1.27334,-1.80052 c 0.70034,-0.99029 7.29099,-10.53177 14.64589,-21.2033 z m -21.340463,-8.29958 c -10.695206,-2.24552 -18.969228,-9.83618 -22.306555,-20.46424 -0.713576,-2.27246 -0.826915,-3.35868 -0.826915,-7.92507 0,-5.93462 0.529675,-8.32399 2.87975,-12.99062 2.066569,-4.10366 3.76585,-5.09029 5.602951,-3.25319 1.190406,1.1904 1.09154,2.18562 -0.515832,5.19242 -1.833802,3.43036 -2.486141,5.7805 -2.724866,9.81667 -0.408584,6.90807 1.803217,12.58031 6.893648,17.67898 2.46869,2.4727 3.592343,3.30618 6.032405,4.4746 3.248416,1.5555 7.284282,2.54086 10.406947,2.54086 3.12266,0 7.15853,-0.98536 10.40694,-2.54086 4.2597,-2.03976 8.47216,-6.25221 10.51192,-10.51191 3.31409,-6.92096 3.31409,-13.89294 0,-20.81389 -1.16697,-2.43702 -2.00499,-3.56772 -4.4746,-6.03732 -2.47114,-2.47115 -3.60764,-3.31322 -6.08472,-4.50839 -4.08225,-1.96966 -7.31534,-2.63343 -11.59426,-2.38034 -4.036174,0.23872 -6.386309,0.89106 -9.816675,2.72486 -3.006795,1.60737 -4.002016,1.70624 -5.192419,0.51583 -1.837105,-1.8371 -0.850466,-3.53638 3.253186,-5.60295 4.666629,-2.35007 7.056,-2.87975 12.990628,-2.87975 4.56638,0 5.6526,0.11334 7.92507,0.82692 9.80937,3.08025 16.74276,10.01363 19.82301,19.82301 0.71358,2.27247 0.82692,3.35869 0.82692,7.92507 0,4.56639 -0.11334,5.65261 -0.82692,7.92507 -3.05655,9.7339 -9.95406,16.6791 -19.63419,19.76992 -1.92939,0.61605 -3.51098,0.81403 -7.23195,0.90527 -2.61937,0.0642 -5.464939,-0.0307 -6.323473,-0.21095 z"
             id="path45" />
        </g>
      </g>
    </g>
  </g>
</svg>
